<svg height="512pt" viewBox="0 0 512 512" width="512pt" xmlns="http://www.w3.org/2000/svg"><path d="m512 256c0 141.386719-114.613281 256-256 256s-256-114.613281-256-256 114.613281-256 256-256 256 114.613281 256 256zm0 0" fill="#6ed747"/><path d="m512 256c0-27.359375-4.308594-53.707031-12.257812-78.425781l-109.992188-109.996094-293.925781 376.835937 34.835937 34.832032c37.046875 20.847656 79.800782 32.753906 125.339844 32.753906 141.386719 0 256-114.613281 256-256zm0 0" fill="#47a125"/><path d="m389.75 444.414062h-293.925781v-376.832031h293.925781zm0 0" fill="#fdfefa"/><path d="m242.789062 67.578125h146.960938v376.84375h-146.960938zm0 0" fill="#e2e0e1"/><path d="m369.757812 391.832031h-253.9375v-303.75h253.9375zm0 0" fill="#0d789b"/><path d="m242.789062 88.078125h126.972657v303.75h-126.972657zm0 0" fill="#08475d"/><path d="m243.378906 295.472656-59.195312-52.351562 19.871094-22.472656 38.148437 33.734374 67.652344-67.105468 21.128906 21.300781zm0 0" fill="#fff"/><path d="m330.980469 208.578125-87.601563 86.890625-.589844-.519531v-41.160157l67.070313-66.507812zm0 0" fill="#f4ede7"/><path d="m291.097656 126.46875h157.324219v248.667969h-157.324219zm0 0" fill="#e2e0e1"/><path d="m369.761719 126.46875h78.660156v248.667969h-78.660156zm0 0" fill="#c7c5cb"/><path d="m378.988281 346.585938h-18.457031c-5.269531 0-9.539062 4.269531-9.539062 9.535156 0 5.269531 4.269531 9.539062 9.539062 9.539062h18.457031c5.265625 0 9.535157-4.269531 9.535157-9.539062 0-5.265625-4.269532-9.535156-9.535157-9.535156zm0 0" fill="#cac8cd"/><path d="m388.523438 356.121094c0-2.632813-1.070313-5.015625-2.792969-6.742188-1.722657-1.730468-4.109375-2.792968-6.742188-2.792968h-9.226562v19.074218h9.226562c5.265625-.003906 9.535157-4.273437 9.535157-9.539062zm0 0" fill="#8a8891"/><path d="m304.242188 151.210938h131.035156v187.074218h-131.035156zm0 0" fill="#1595b7"/><path d="m369.757812 151.210938h65.519532v187.074218h-65.519532zm0 0" fill="#08475d"/><path d="m371.132812 279.15625-40.476562-31.972656 18.59375-23.539063 19.761719 15.605469 29.898437-29.261719 20.984375 21.4375zm0 0" fill="#fff"/><path d="m419.894531 231.425781-20.984375-21.4375-29.152344 28.53125v39.550781l1.375 1.085938zm0 0" fill="#f4ede7"/><path d="m257.257812 402.515625h-28.9375c-8.253906 0-14.949218 6.695313-14.949218 14.953125 0 8.253906 6.695312 14.949219 14.949218 14.949219h28.9375c8.253907 0 14.949219-6.695313 14.949219-14.949219 0-8.257812-6.691406-14.953125-14.949219-14.953125zm0 0" fill="#cac8cd"/><g fill="#8a8891"><path d="m272.207031 417.464844c0-4.128906-1.679687-7.863282-4.378906-10.570313-2.699219-2.710937-6.441406-4.378906-10.570313-4.378906h-14.46875v29.898437h14.46875c8.253907 0 14.949219-6.695312 14.949219-14.949218zm0 0"/><path d="m328.582031 139.269531c0 3.660157-2.964843 6.628907-6.625 6.628907-3.660156 0-6.625-2.96875-6.625-6.628907 0-3.65625 2.964844-6.625 6.625-6.625 3.660157 0 6.625 2.96875 6.625 6.625zm0 0"/></g></svg>