<svg height="512pt" viewBox="0 0 512 512" width="512pt" xmlns="http://www.w3.org/2000/svg"><path d="m512 256c0 141.386719-114.613281 256-256 256s-256-114.613281-256-256 114.613281-256 256-256 256 114.613281 256 256zm0 0" fill="#4dd0e1"/><path d="m374.542969 144.480469-7.757813 31.039062c13.46875 3.34375 24.6875 12.632813 30.488282 25.238281 5.804687 12.609376 5.558593 27.171876-.664063 39.578126l-65.410156 119.230468-51.96875-151.566406h24.769531v-32h-96v32h37.40625l14.867188 43.34375-58.832032 110.878906-52.867187-154.222656h27.425781v-32h-96v32h34.753906l65.820313 192h37.027343l56.863282-107.199219 36.800781 107.199219h34.222656l76.800781-139.519531 2.910157-5.824219c10.558593-21.085938 10.972656-45.824219 1.121093-67.25-9.847656-21.425781-28.898437-37.214844-51.777343-42.925781zm0 0" fill="#fff"/></svg>