<?xml version="1.0" encoding="utf-8"?>
<!-- Svg Vector Icons : http://www.onlinewebfonts.com/icon -->
<!DOCTYPE svg PUBLIC "-//W3C//DTD SVG 1.1//EN" "http://www.w3.org/Graphics/SVG/1.1/DTD/svg11.dtd">
<svg version="1.1" xmlns="http://www.w3.org/2000/svg" xmlns:xlink="http://www.w3.org/1999/xlink" x="0px" y="0px" viewBox="0 0 1000 1000" enable-background="new 0 0 1000 1000" xml:space="preserve">
<metadata> Svg Vector Icons : http://www.onlinewebfonts.com/icon </metadata>
<g><g transform="translate(0.000000,420.000000) scale(0.100000,-0.100000)"><path d="M751.3,3204.3c-253.8-67.3-447.9-228.8-571-478.7l-73.1-148l-5.8-2797.2c-3.9-2518.4-1.9-2808.7,26.9-2902.9c46.1-161.5,117.3-278.8,240.3-396c188.4-178.8,415.3-257.6,747.8-259.5h125L982-4041.4c-142.3-146.1-321.1-328.7-394.1-405.6l-134.6-138.4l126.9-126.9l125-125l522.9,528.7l522.9,530.6h3627.7c2276.2,0,3679.6,7.7,3764.2,19.2c265.3,38.4,546,232.6,661.3,459.5c103.8,201.9,98,53.8,94.2,3079.8l-5.8,2797.2l-73,150c-128.8,257.6-363.3,442.2-626.7,492.1c-67.3,11.5-1534.1,19.2-4210.2,17.3C1181.9,3237,866.6,3235.1,751.3,3204.3z M4509.7,2716c0-136.5,7.7-174.9,51.9-257.6c150-284.5,503.7-374.9,772.8-198c163.4,109.6,261.5,336.4,224.9,526.7l-15.4,86.5h1628.3h1630.2l-9.6-123c-32.7-403.7,357.6-694,730.5-540.2c30.8,13.5,32.7-113.4,32.7-2497.3v-2510.7l-71.1,30.8c-119.2,51.9-305.7,44.2-434.5-17.3c-194.2-96.1-290.3-251.9-290.3-478.7l-1.9-150H7143.5H5526.7v138.4c1.9,315.3-219.2,542.1-526.7,542.1c-307.6,0-528.7-226.8-526.7-542.1v-138.4H3288.9H2106.6L4707.7-811.7l2599.2,2599.2l-125,125l-125,125L4330.9-688.6L1606.8-3412.8h-194.2h-194.2v140.3c-1.9,161.5-34.6,249.9-132.7,359.5c-163.4,180.7-380.6,230.7-609.4,144.2c-30.8-13.5-32.7,115.4-32.7,2497.3c0,1380.3,3.8,2510.7,9.6,2510.7c7.7,0,38.4-15.4,73-32.7c80.7-42.3,303.8-42.3,401.8-1.9c107.7,48.1,236.5,176.9,284.5,288.4c34.6,78.8,40.4,126.9,34.6,240.3l-5.8,140.3h1634.1h1634.1V2716z"/><path d="M7131.9,253.4c-438.3-255.7-817.1-478.7-842.1-494.1c-40.4-26.9-11.5-48.1,770.9-497.9c447.9-259.5,832.4-482.5,857.4-497.9l42.3-26.9v992c0,546-5.8,992-13.5,990.1C7937.4,718.6,7572.2,509,7131.9,253.4z M7614.5-271.5c0-205.7-5.8-371-13.5-367.2c-221.1,117.3-636.3,371-626.7,380.7c21.1,21.1,609.4,361.4,626.7,363.3C7608.7,105.3,7614.5-63.8,7614.5-271.5z"/><path d="M2735.3,45.7c-271.1-134.6-244.2-532.5,44.2-644c161.5-61.5,334.5,3.8,424.9,157.6c100,171.1,34.6,394.1-146.1,490.2C2969.8,97.6,2837.1,95.7,2735.3,45.7z"/></g></g>
</svg>