<?xml version="1.0" encoding="utf-8"?>
<!-- Svg Vector Icons : http://www.onlinewebfonts.com/icon -->
<!DOCTYPE svg PUBLIC "-//W3C//DTD SVG 1.1//EN" "http://www.w3.org/Graphics/SVG/1.1/DTD/svg11.dtd">
<svg version="1.1" xmlns="http://www.w3.org/2000/svg" xmlns:xlink="http://www.w3.org/1999/xlink" x="0px" y="0px" viewBox="0 0 1000 1000" enable-background="new 0 0 1000 1000" xml:space="preserve">
<metadata> Svg Vector Icons : http://www.onlinewebfonts.com/icon </metadata>
<g><path d="M982.5,379.4C862,240.5,686.2,160.8,500,160.8c-186.1,0-362,79.6-482.4,218.5c-11.2,12.8-9.9,32.3,2.9,43.5c12.8,11.2,32.2,9.9,43.2-2.9C172.5,294.4,331.6,222.5,500,222.5c168.5,0,327.5,72,436.3,197.4c6.1,7,14.6,10.6,23.1,10.6c7.1,0,14.3-2.5,20.1-7.6C992.2,411.6,993.6,392.2,982.5,379.4L982.5,379.4z M500,333.8c-139.8,0-269.9,61.7-356.9,169.3c-10.7,13.2-8.7,32.6,4.4,43.4c13.2,10.8,32.5,8.7,43.1-4.4c75.3-93.2,188.2-146.6,309.5-146.6c121.4,0,234.2,53.4,309.5,146.6c6.1,7.5,14.9,11.4,23.8,11.4c6.8,0,13.6-2.3,19.3-7c13.1-10.8,15.1-30.2,4.4-43.4C770,395.6,639.9,333.8,500,333.8L500,333.8z M500,506.8c-93.4,0-180,45.7-231.6,122.2c-9.5,14.1-5.9,33.3,8.1,42.9c5.3,3.6,11.3,5.3,17.2,5.3c9.8,0,19.4-4.7,25.4-13.5c40.3-59.7,107.9-95.2,181-95.2c72,0,139.2,34.8,179.5,93.1c9.7,14,28.9,17.4,42.7,7.7c13.9-9.7,17.3-29,7.6-43C677.9,551.5,592,506.8,500,506.8L500,506.8z M500,717.8c-33.7,0-61.2,27.2-61.2,60.7c0,33.5,27.5,60.7,61.2,60.7c33.8,0,61.2-27.2,61.2-60.7C561.2,745,533.8,717.8,500,717.8L500,717.8z"/></g>
</svg>